<?xml version="1.0" encoding="UTF-8"?><svg id="a" xmlns="http://www.w3.org/2000/svg" viewBox="0 0 1080 1080"><defs><style>.b{fill:#fff;}</style></defs><g><path class="b" d="M70.13,974.69h-12.37v34.46h-13.24v-105.29h30.15c8.78,1.17,16.12,4.73,22.02,10.68,6.88,6.88,10.32,15.1,10.32,24.66s-3.54,17.95-10.61,25.02c-4.68,4.73-8.83,7.54-12.44,8.41l23.63,36.51h-15.29l-22.17-34.46Zm-12.37-59.27v47.71h13.02c6.15,0,11.51-2.28,16.1-6.84,4.58-4.56,6.88-10.26,6.88-17.09s-2.29-12.44-6.88-16.97c-4.59-4.54-9.95-6.8-16.1-6.8h-13.02Z"/><path class="b" d="M130.2,973.66v.22c0,7.12,2.41,13.1,7.24,17.93,4.83,4.83,10.54,7.24,17.12,7.24s12.27-2.46,17.19-7.39c.68-.68,2-2.22,3.95-4.61l12.44,4.39c-1.85,3.12-4,5.88-6.44,8.27-7.42,7.46-16.46,11.19-27.15,11.19s-19.55-3.67-26.89-11.01c-7.34-7.34-11.01-16.01-11.01-26.01s3.67-18.8,11.01-26.12c7.34-7.32,16.3-10.98,26.89-10.98s19.73,3.71,27.15,11.12c6.39,6.44,9.59,15.02,9.59,25.76h-61.1Zm2.34-11.56h43.83c-3.12-9.07-10.39-13.61-21.8-13.61s-18.8,4.54-22.02,13.61Z"/><path class="b" d="M204.17,903.86h13.24v46.1c5.22-8.78,13.15-13.17,23.78-13.17s19.61,3.66,26.93,10.98c7.32,7.32,10.98,16.02,10.98,26.12s-3.66,18.67-10.98,26.01c-7.32,7.34-16.29,11.01-26.93,11.01s-18.56-4.42-23.78-13.24v11.49h-13.24v-105.29Zm13.24,64.39v11.27c.88,4.68,3.15,8.83,6.8,12.44,4.78,4.73,10.44,7.1,16.97,7.1s12.23-2.41,17.09-7.24c4.85-4.83,7.28-10.8,7.28-17.93s-2.43-13.19-7.28-18.07c-4.85-4.88-10.55-7.32-17.09-7.32s-12.29,2.49-17.27,7.46c-3.46,3.46-5.63,7.56-6.51,12.29Z"/><path class="b" d="M304.85,973.66v.22c0,7.12,2.41,13.1,7.24,17.93,4.83,4.83,10.54,7.24,17.12,7.24s12.27-2.46,17.19-7.39c.68-.68,2-2.22,3.95-4.61l12.44,4.39c-1.85,3.12-4,5.88-6.44,8.27-7.42,7.46-16.46,11.19-27.15,11.19s-19.55-3.67-26.89-11.01c-7.34-7.34-11.01-16.01-11.01-26.01s3.67-18.8,11.01-26.12c7.34-7.32,16.3-10.98,26.89-10.98s19.73,3.71,27.15,11.12c6.39,6.44,9.59,15.02,9.59,25.76h-61.1Zm2.34-11.56h43.83c-3.12-9.07-10.39-13.61-21.8-13.61s-18.8,4.54-22.02,13.61Z"/><path class="b" d="M433.76,987.79l12.58,4.61c-2.49,3.37-4.46,5.81-5.93,7.32-7.42,7.46-16.46,11.19-27.15,11.19s-19.55-3.67-26.89-11.01c-7.34-7.34-11.01-16.04-11.01-26.09s3.67-18.73,11.01-26.05c7.34-7.32,16.3-10.98,26.89-10.98s19.63,3.61,26.85,10.83c1.66,1.66,3.73,4.17,6.22,7.54l-12.58,4.68c-1.76-2.2-2.95-3.63-3.59-4.32-4.73-4.68-10.36-7.02-16.9-7.02s-12.22,2.43-17.05,7.28c-4.83,4.85-7.24,10.86-7.24,18.03s2.41,13.11,7.24,17.96,10.51,7.28,17.05,7.28,12.27-2.46,17.19-7.39c.44-.44,1.54-1.73,3.29-3.88Z"/><path class="b" d="M533.56,1009.15h-13.24v-11.71c-5.22,8.97-13.17,13.46-23.85,13.46s-19.55-3.67-26.89-11.01c-7.34-7.34-11.01-16.01-11.01-26.01s3.67-18.8,11.01-26.12c7.34-7.32,16.3-10.98,26.89-10.98s18.63,4.44,23.85,13.32v-7.83h13.24v66.88Zm-13.24-30v-10.68c-.93-4.83-3.15-9-6.66-12.51-4.93-4.98-10.66-7.46-17.19-7.46s-12.29,2.44-17.12,7.32c-4.83,4.88-7.24,10.9-7.24,18.07s2.41,13.1,7.24,17.93,10.54,7.24,17.12,7.24,12.27-2.46,17.19-7.39c3.51-3.51,5.73-7.68,6.66-12.51Z"/><path class="b" d="M633.29,903.86l38.12,105.29h-13.76l-15.88-43.75h-28.61l-16.17,43.75h-13.83l38.63-105.29h11.49Zm4.32,50.12l-10.1-27.95-10.17,27.95h20.27Z"/><path class="b" d="M695.91,903.86v105.29h-13.24v-105.29h13.24Z"/><path class="b" d="M724.3,973.66v.22c0,7.12,2.41,13.1,7.24,17.93,4.83,4.83,10.54,7.24,17.12,7.24s12.27-2.46,17.19-7.39c.68-.68,2-2.22,3.95-4.61l12.44,4.39c-1.85,3.12-4,5.88-6.44,8.27-7.42,7.46-16.46,11.19-27.15,11.19s-19.55-3.67-26.89-11.01c-7.34-7.34-11.01-16.01-11.01-26.01s3.67-18.8,11.01-26.12c7.34-7.32,16.3-10.98,26.89-10.98s19.73,3.71,27.15,11.12c6.39,6.44,9.59,15.02,9.59,25.76h-61.1Zm2.34-11.56h43.83c-3.12-9.07-10.39-13.61-21.8-13.61s-18.8,4.54-22.02,13.61Z"/><path class="b" d="M811.51,954.06v55.1h-13.24v-66.88h8.27c3.61-2.39,8.1-3.59,13.46-3.59,6.24,0,11.39,1.56,15.44,4.68,3.95-3.12,9.05-4.68,15.29-4.68s11.51,2.15,15.8,6.44c3.85,3.95,5.88,8.59,6.07,13.9v50.12h-13.24v-52.97c-.59-4.05-3.46-6.07-8.63-6.07-4.29,0-7.24,1.9-8.85,5.71v53.34h-13.24v-52.97h-.07c-.54-4.05-3.39-6.07-8.56-6.07-3.61,0-6.44,1.32-8.49,3.95Z"/><path class="b" d="M963.26,1009.15h-13.24v-11.71c-5.22,8.97-13.17,13.46-23.85,13.46s-19.55-3.67-26.89-11.01c-7.34-7.34-11.01-16.01-11.01-26.01s3.67-18.8,11.01-26.12c7.34-7.32,16.3-10.98,26.89-10.98s18.63,4.44,23.85,13.32v-7.83h13.24v66.88Zm-13.24-30v-10.68c-.93-4.83-3.15-9-6.66-12.51-4.93-4.98-10.66-7.46-17.19-7.46s-12.29,2.44-17.12,7.32c-4.83,4.88-7.24,10.9-7.24,18.07s2.41,13.1,7.24,17.93c4.83,4.83,10.54,7.24,17.12,7.24s12.27-2.46,17.19-7.39c3.51-3.51,5.73-7.68,6.66-12.51Zm.22-63.14l-22.9,17.49h-13.83l15.22-17.49h21.51Z"/><path class="b" d="M993.26,959.25v49.9h-13.24v-66.88h13.24c2.24-2.44,6.88-3.66,13.9-3.66,8.44,0,15.24,2.59,20.41,7.76,5.17,5.17,7.8,11.49,7.9,18.95v43.83h-13.17v-43.24c0-4.54-1.54-8.3-4.61-11.3s-6.59-4.5-10.54-4.5-7.34,1.42-10.32,4.24c-1.71,1.71-2.9,3.34-3.59,4.9Z"/></g><g><path class="b" d="M713.39,485.58c-.91-.11-1.85-.17-2.79-.17-7.86,0-16.53,3.91-23.74,10.81-18.11,17.34-29.47,40.02-27.02,53.91,.85,4.8,3.33,7.96,7.8,9.92,8.22,3.59,23.38-3.6,32.73-12.34,16.4-15.33,21.5-31.1,22.89-41.64,.72-5.51,.38-12.84-2.78-16.92-.99-1.28-2.8-3.04-7.09-3.58Z"/><path class="b" d="M170.95,480.64c20.46-1.24,39.78-2.41,58.67-7.26,43.68-11.21,84.15-42.63,113.95-88.45,24.53-37.71,42.22-85.06,54.08-144.76,.98-4.9,5.56-8.22,10.52-7.57,4.95,.63,8.57,4.99,8.27,9.97l-1.78,30.49c25.58-22.76,61.61-33.81,95.53-27.24,11.2,2.17,19.82,5.9,26.32,11.4,26.15,22.15,14.16,66.13,2.96,88.63-20.51,41.15-52.82,73.54-78.67,97.15l-3.37,3.1c-.74,.68-1.5,1.39-2.29,2.11,6.88,6.42,12.11,13.48,16.73,20.31,11.49,17,16.6,39.91,14.78,66.25-.37,5.37-.9,11.25-1.45,17.31-1.64,17.99-3.88,42.63-.41,50.91,5.6,13.37,21.1,16.48,32.85,11.75,29.16-11.72,76.87-71.77,94.82-94.38,3.29-4.14,6.5-8.48,9.71-12.83,15.26-20.64,31.03-41.99,57.59-47.63,18.52-3.93,38.79-.66,60.25,9.73,7.7,3.72,12.01,11.88,10.7,20.31-.51,3.3-1.08,6.67-1.64,10.07-3.48,20.79-7.43,44.36,.74,55.45,3.1,4.21,8.17,6.75,15.48,7.75,26.03,3.6,59.51-19.76,98.2-46.78,22.38-15.63,46.96-32.79,73.38-46.56,0-1.06,.04-2.11,.04-3.17,0-219.59-178.01-397.6-397.6-397.6S141.7,247.1,141.7,466.69c0,5.4,.14,10.77,.35,16.13,9.71-1,19.39-1.6,28.89-2.17Z"/><path class="b" d="M444.54,432.13l3.44-3.17c24.63-22.51,55.36-53.26,74.48-91.6,11.41-22.9,15.9-53.69,1.77-65.66-4-3.39-9.61-5.69-17.65-7.25-35.41-6.83-73.57,9.44-93.71,39.11l-1.9,32.58c-1.73,29.67-3.48,59.61-5.88,89.61,14.19,2.12,25.35,6.04,34.37,11.04,1.81-1.65,3.51-3.21,5.07-4.66Z"/><path class="b" d="M401.55,464.77c7.82-4.01,15.32-9.2,22.13-14.53-5.69-2.38-12.34-4.26-20.2-5.52-.6,6.69-1.24,13.37-1.93,20.05Z"/><path class="b" d="M874.35,531.99c-41.95,29.3-78.21,54.62-111.64,50.03-12.5-1.71-21.99-6.86-28.21-15.31-4.32-5.87-6.67-12.77-7.76-20.29-3.61,5.04-8.01,10.14-13.39,15.17-8.36,7.82-24.49,18.46-40.51,18.46-4.34,0-8.67-.78-12.83-2.61-10.23-4.5-16.92-13.02-18.86-24.01-3.59-20.32,9.51-48.82,32.59-70.93,.38-.36,.77-.7,1.15-1.05-14.83,6.81-25.87,21.71-37.44,37.37-3.35,4.53-6.69,9.05-10.12,13.36-34.02,42.82-72.81,88.2-102.61,100.18-5.62,2.26-11.76,3.43-17.91,3.43-16.06,0-32.23-7.98-39.55-25.47-5.28-12.63-3.1-36.69-.98-59.96,.54-5.91,1.06-11.66,1.42-16.9,1.06-15.39-.08-37.31-11.56-54.3-4.41-6.53-9.1-12.83-15.33-18.31-11.69,9.71-26.01,19.85-41.64,25.65-6.78,56.98-17.47,113.54-36.42,168.04-1.37,3.92-5.04,6.37-8.97,6.37-1.03,0-2.09-.17-3.12-.53-4.95-1.73-7.57-7.14-5.85-12.09,17.65-50.74,27.96-103.66,34.65-157.19-3.56,.32-7.16,.36-10.79,.04-19.93-1.79-27.99-12.02-31.03-17.96-4.64-9.07-4.19-20.3,1.16-29.3,9.61-16.17,32.14-19.34,47.36-19.49,2.4-29.89,4.14-59.77,5.87-89.36l.32-5.43c-9.29,24.45-20.19,46.23-32.84,65.68-32.41,49.82-76.86,84.09-125.15,96.49-20.64,5.3-41.79,6.58-62.24,7.82-9.52,.58-19.22,1.18-28.84,2.19,17.77,203.14,188.28,362.5,396.04,362.5s383.83-164.61,396.78-372.5c-21.48,12.11-42.08,26.47-61.73,40.2Z"/><path class="b" d="M354.54,464.54c2.77,5.43,10.13,7.18,15.82,7.69,3.76,.35,7.56,.12,11.35-.52,1.03-9.42,1.97-18.85,2.82-28.29-13.05,.42-25.51,3.61-29.42,10.18-1.65,2.78-2.47,7.24-.57,10.94Z"/></g></svg>